name C:\Users\Nicos\Desktop\Gil_twoSteps\Study2\ExperimentalData\IK_Splined\twoSteps_IK_BSplines_25_meshInts_study2_p02_s_01_lowIK_modROI.mot
datacolumns 38
datarows 12
range 0.54852791 0.59230409
endheader
                time	         pelvis_tilt	         pelvis_list	     pelvis_rotation	           pelvis_tx	           pelvis_ty	           pelvis_tz	       hip_flexion_r	     hip_adduction_r	      hip_rotation_r	        knee_angle_r	       ankle_angle_r	    subtalar_angle_r	         mtp_angle_r	       hip_flexion_l	     hip_adduction_l	      hip_rotation_l	        knee_angle_l	       ankle_angle_l	    subtalar_angle_l	         mtp_angle_l	    lumbar_extension	      lumbar_bending	     lumbar_rotation	          arm_flex_r	           arm_add_r	           arm_rot_r	        elbow_flex_r	           pro_sup_r	        wrist_flex_r	         wrist_dev_r	          arm_flex_l	           arm_add_l	           arm_rot_l	        elbow_flex_l	           pro_sup_l	        wrist_flex_l	         wrist_dev_l	
          0.54852791	        -21.62752420	         12.97869391	         -7.39616826	         -0.27667614	          0.87306247	          0.35236007	        -11.19025840	        -17.26296361	          0.19750718	        -29.44734130	        -38.87819615	        -12.46089177	          5.71567776	         87.21725875	          1.82677519	        -11.33100012	        -85.19761413	          3.26880440	        -13.90747049	          8.16833928	        -17.43352743	        -24.75607346	         -5.47849992	         50.98930359	        -12.58393996	         19.66294133	        142.50621923	         57.34285690	        -19.03958460	          9.71358941	        -77.51153922	          0.01514711	        -41.48819854	         59.21526733	         66.37280798	          1.58858703	         25.89178930	
          0.55472000	        -21.37137564	         12.86702420	         -6.50253482	         -0.24242737	          0.87541014	          0.35226899	        -10.83631702	        -17.16510248	         -0.97531309	        -32.42038182	        -39.98879754	        -13.43155098	          4.36920735	         85.52459174	          2.26576664	        -10.87136049	        -82.84924429	          4.03403352	        -13.44710587	          7.97644125	        -18.03922168	        -24.70550912	         -5.36055378	         47.30227595	        -13.15190834	         18.03309282	        140.88811773	         57.43425216	        -19.84226482	         10.31738541	        -75.29514293	         -0.40663860	        -40.90343277	         59.94644686	         66.28320734	          2.04772492	         25.77655586	
          0.55472000	        -21.37137564	         12.86702420	         -6.50253482	         -0.24242737	          0.87541014	          0.35226899	        -10.83631702	        -17.16510248	         -0.97531309	        -32.42038182	        -39.98879754	        -13.43155098	          4.36920735	         85.52459174	          2.26576664	        -10.87136049	        -82.84924429	          4.03403352	        -13.44710587	          7.97644125	        -18.03922168	        -24.70550912	         -5.36055378	         47.30227595	        -13.15190834	         18.03309282	        140.88811773	         57.43425216	        -19.84226482	         10.31738541	        -75.29514293	         -0.40663860	        -40.90343277	         59.94644686	         66.28320734	          2.04772492	         25.77655586	
          0.55742409	        -21.25951538	         12.81825796	         -6.11228448	         -0.22747091	          0.87643537	          0.35222921	        -10.68175058	        -17.12236646	         -1.48748450	        -33.71871065	        -40.47379793	        -13.85543852	          3.78120280	         84.78540290	          2.45747451	        -10.67063555	        -81.82370958	          4.36820960	        -13.24606433	          7.89263925	        -18.30372877	        -24.68342764	         -5.30904662	         45.69214845	        -13.39994052	         17.32133686	        140.18149169	         57.47416453	        -20.19279582	         10.58106354	        -74.32724115	         -0.59083271	        -40.64806516	         60.26575347	         66.24407868	          2.24823076	         25.72623334	
          0.56596791	        -20.85135314	         12.47494022	         -4.78181086	         -0.18018980	          0.87966573	          0.35195729	         -9.47757196	        -16.70219669	         -3.14617788	        -39.01063159	        -40.98942002	        -15.42009519	          1.93689272	         81.64921065	          3.08944923	         -9.99782648	        -78.70985347	          5.61538201	        -12.64766413	          7.58502645	        -19.37384424	        -24.27875162	         -5.12154073	         39.77652163	        -13.99979807	         14.62598327	        136.27420930	         57.92901266	        -21.25421173	         11.63625404	        -70.27657299	         -1.43644539	        -39.28482997	         60.84462825	         66.31079869	          2.78742852	         25.46235418	
          0.57216000	        -20.53841919	         12.16692568	         -3.78707523	         -0.14591529	          0.88200411	          0.35171447	         -8.38092993	        -16.30848308	         -4.36095805	        -43.21809527	        -41.04504569	        -16.62456438	          0.60447537	         79.12581034	          3.55568308	         -9.49813666	        -76.49264727	          6.57911004	        -12.22549122	          7.34868676	        -20.22272384	        -23.88069919	         -4.97790005	         35.23009906	        -14.37703839	         12.53286721	        132.91856899	         58.36149815	        -22.00904057	         12.47046737	        -67.03040082	         -2.13176881	        -38.12278653	         61.12965130	         66.41869901	          3.14870458	         25.23830046	
          0.57216000	        -20.53841919	         12.16692568	         -3.78707523	         -0.14591529	          0.88200411	          0.35171447	         -8.38092993	        -16.30848308	         -4.36095805	        -43.21809527	        -41.04504569	        -16.62456438	          0.60447537	         79.12581034	          3.55568308	         -9.49813666	        -76.49264727	          6.57911004	        -12.22549122	          7.34868676	        -20.22272384	        -23.88069919	         -4.97790005	         35.23009906	        -14.37703839	         12.53286721	        132.91856899	         58.36149815	        -22.00904057	         12.47046737	        -67.03040082	         -2.13176881	        -38.12278653	         61.12965130	         66.41869901	          3.14870458	         25.23830046	
          0.57486409	        -20.39786786	         12.00858987	         -3.34163669	         -0.13095153	          0.88300738	          0.35158702	         -7.80838214	        -16.10722082	         -4.89098394	        -45.17808362	        -40.94659923	        -17.16995482	          0.03164382	         77.93360812	          3.75623889	         -9.27220789	        -75.53936095	          7.01503693	        -12.04845193	          7.24559743	        -20.61223632	        -23.66330655	         -4.91432039	         33.15522594	        -14.51503698	         11.57148068	        131.27266143	         58.59044070	        -22.32807725	         12.86025588	        -65.49684234	         -2.46098777	        -37.54747990	         61.22130215	         66.48122189	          3.29325639	         25.12889761	
          0.58340791	        -19.92759162	         11.34801293	         -1.85997642	         -0.08369870	          0.88605681	          0.35104033	         -5.36932605	        -15.27399869	         -6.56249096	        -52.19561332	        -39.80975842	        -19.02367635	         -1.71747508	         73.55965226	          4.36940063	         -8.50646574	        -72.62807866	          8.49375427	        -11.53835581	          6.92068716	        -21.96946584	        -22.68334085	         -4.70770451	         25.99766728	        -14.77113087	          8.21551102	        124.85786983	         59.58343833	        -23.26480176	         14.26330633	        -59.87128565	         -3.67322685	        -35.27330438	         61.29007377	         66.78239922	          3.66105175	         24.70546338	
          0.58960000	        -19.58701784	         10.83176358	         -0.77140214	         -0.04947370	          0.88820296	          0.35060405	         -3.44675065	        -14.63796361	         -7.76132642	        -57.41653952	        -38.80389972	        -20.37857305	         -2.95530798	         70.27015056	          4.79545636	         -7.93327981	        -70.53968534	          9.56995107	        -11.18592054	          6.69713938	        -22.95991855	        -21.90157741	         -4.56144600	         20.70107429	        -14.90698056	          5.72774896	        119.98931407	         60.36338613	        -23.91680633	         15.31500782	        -55.63086999	         -4.57580699	        -33.52303399	         61.33366099	         67.00668409	          3.90394718	         24.38389553	
          0.58960000	        -19.58701784	         10.83176358	         -0.77140214	         -0.04947370	          0.88820296	          0.35060405	         -3.44675065	        -14.63796361	         -7.76132642	        -57.41653952	        -38.80389972	        -20.37857305	         -2.95530798	         70.27015056	          4.79545636	         -7.93327981	        -70.53968534	          9.56995107	        -11.18592054	          6.69713938	        -22.95991855	        -21.90157741	         -4.56144600	         20.70107429	        -14.90698056	          5.72774896	        119.98931407	         60.36338613	        -23.91680633	         15.31500782	        -55.63086999	         -4.57580699	        -33.52303399	         61.33366099	         67.00668409	          3.90394718	         24.38389553	
          0.59230409	        -19.43861052	         10.55931680	         -0.27753577	         -0.03455426	          0.88906007	          0.35036332	         -2.41303844	        -14.31989672	         -8.26909061	        -59.86573402	        -38.13660611	        -20.98457260	         -3.45848028	         68.68384742	          4.95854108	         -7.66013520	        -69.65468434	         10.04557203	        -11.05363755	          6.61446754	        -23.40098224	        -21.47051785	         -4.50194312	         18.25119580	        -14.90394794	          4.57172988	        117.58814046	         60.77953943	        -24.16784483	         15.81796336	        -53.57437667	         -5.00006505	        -32.63075554	         61.34485626	         67.11215979	          3.98036242	         24.22505978	
